<?xml version="1.0" standalone="no"?><!DOCTYPE svg PUBLIC "-//W3C//DTD SVG 1.1//EN" "http://www.w3.org/Graphics/SVG/1.1/DTD/svg11.dtd"><svg t="1752477038342" class="icon" viewBox="0 0 1024 1024" version="1.1" xmlns="http://www.w3.org/2000/svg" p-id="12882" xmlns:xlink="http://www.w3.org/1999/xlink" width="200" height="200"><path d="M338.5 465.9c42.3 0.1 80.4-25.5 96.7-64.9 16.2-39.3 7.3-84.6-22.6-114.7s-74.8-39.2-113.9-22.9c-39.1 16.3-64.5 54.7-64.5 97.2 0 27.9 11 54.6 30.5 74.4s46.2 30.9 73.8 30.9z m554.1 111.3l-89-121.7c-67.4-77.9-114.6-55-150.9 4-30.8 50.1-70.6 122.4-70.8 122.9-42.5 71.1-70.9 125.7-162.3 71.1 0 0-74.8-46.3-118.6-76-53.6-36.3-102 63.8-149.6 118.4l-20 22.5V196.6h761.2v380.6z m56.7-437.9c-8.1-8.2-19.2-12.8-30.7-12.8H105.4c-24 0-43.4 19.6-43.4 43.7v683.6c0 24.1 19.4 43.7 43.4 43.7h813.2c24 0 43.4-19.6 43.4-43.7V170.3c0-11.6-4.6-22.8-12.7-31z" fill="#e6e6e6" p-id="12883"></path></svg>