<?xml version="1.0" standalone="no"?><!DOCTYPE svg PUBLIC "-//W3C//DTD SVG 1.1//EN" "http://www.w3.org/Graphics/SVG/1.1/DTD/svg11.dtd"><svg t="1750339529971" class="icon" viewBox="0 0 1024 1024" version="1.1" xmlns="http://www.w3.org/2000/svg" p-id="8423" xmlns:xlink="http://www.w3.org/1999/xlink" width="200" height="200"><path d="M567.68 304c0-30.75072-24.92928-55.68-55.68-55.68s-55.68 24.92928-55.68 55.68S481.24928 359.68 512 359.68s55.68-24.92928 55.68-55.68z m74.24 0c0 71.75168-58.16832 129.92-129.92 129.92S382.08 375.75168 382.08 304 440.24832 174.08 512 174.08s129.92 58.16832 129.92 129.92z" p-id="8424"></path><path d="M215.04 315.8784C217.07776 153.79968 349.91616 23.95136 512 25.6c162.08384-1.64864 294.91712 128.19968 296.95488 290.27328A288.78848 288.78848 0 0 1 660.48 566.43072l-117.2992 113.5872a49.00864 49.00864 0 0 1-68.3008 0l-122.496-118.77888A287.68768 287.68768 0 0 1 215.04 315.8784z m296.96 293.61664l105.4208-101.33504 4.4544-2.2272a215.28576 215.28576 0 0 0 111.35488-188.19584c-0.80896-121.15456-99.6864-218.71104-220.84608-217.89696l-0.384 0.00512c-121.14432-1.85856-220.86144 94.83776-222.72 215.98208v0.0512a214.54848 214.54848 0 0 0 106.15808 185.6l3.712 2.2272 3.34336 2.9696L512 609.49504z" p-id="8425"></path><path d="M831.60064 656.63488h-96.88576a37.12 37.12 0 0 1 0-74.24h123.61216a37.12 37.12 0 0 1 37.12 25.24672l99.10784 296.95488a37.12 37.12 0 0 1-37.12 48.9984H66.56512a37.12 37.12 0 0 1-37.12-48.9984l99.10784-296.95488a37.12 37.12 0 0 1 37.12-25.24672H289.28a37.12 37.12 0 0 1 0 74.24H192.39936l-74.24 222.72h787.68128l-74.24-222.72z" p-id="8426"></path><path d="M400.64 805.11488a37.12 37.12 0 0 1 0-74.24h222.72c20.49536 0 37.12 16.62464 37.12 37.12s-16.62464 37.12-37.12 37.12h-222.72z" p-id="8427"></path></svg>