<?xml version="1.0" standalone="no"?><!DOCTYPE svg PUBLIC "-//W3C//DTD SVG 1.1//EN" "http://www.w3.org/Graphics/SVG/1.1/DTD/svg11.dtd"><svg t="1750511538879" class="icon" viewBox="0 0 1024 1024" version="1.1" xmlns="http://www.w3.org/2000/svg" p-id="17625" xmlns:xlink="http://www.w3.org/1999/xlink" width="200" height="200"><path d="M510.328941 955.061908c-58.07672 0-116.129904-11.593036-171.291225-34.710546-109.101837-45.760207-193.866383-131.270742-238.655472-240.778832-92.447529-226.090295 16.248056-485.219053 242.293325-577.666582C568.744375 9.458419 827.873134 118.131491 920.343175 344.17676c27.568892 67.431785 38.189787 141.100622 30.710442 213.051327-0.994654 9.558703-9.53619 16.519232-19.049868 15.479553-9.53619-0.994654-16.474206-9.513678-15.479553-19.049868 6.891967-66.302055-2.915399-134.185118-28.314883-196.329481-41.286312-100.921527-119.384018-179.74271-219.944318-221.910089-100.582813-42.189891-211.537857-42.642193-312.436872-1.378393C147.476843 219.23312 47.301306 458.069717 132.517129 666.420999c41.286312 100.921527 119.384018 179.74271 219.944318 221.910089 100.5603 42.189891 211.515345 42.642193 312.436872 1.378393 8.858762-3.592828 19.027355 0.632403 22.642696 9.491165 3.615341 8.881274-0.632403 19.004843-9.491165 22.642696C623.905696 943.989735 567.094806 955.061908 510.328941 955.061908z" p-id="17626"></path><path d="M824.483944 821.125453c-0.226151 0-0.452301 0-0.678452-0.022513-9.581216-0.361227-17.061584-8.40646-16.676821-17.987676l4.383844-114.75151c0.338714-9.581216 7.886621-17.897625 17.987676-16.676821 9.581216 0.361227 17.061584 8.40646 16.676821 17.987676l-4.383844 114.75151C841.454454 813.781184 833.748958 821.125453 824.483944 821.125453z" p-id="17627"></path><path d="M939.257967 825.509297c-0.226151 0-0.452301 0-0.677429-0.022513l-114.774023-4.383844c-9.581216-0.361227-17.061584-8.40646-16.676821-17.987676 0.338714-9.603729 8.473999-17.806551 17.987676-16.676821l114.774023 4.383844c9.581216 0.361227 17.061584 8.40646 16.676821 17.987676C956.228477 818.165028 948.522981 825.509297 939.257967 825.509297z" p-id="17628"></path><path d="M714.342428 503.310084 341.004511 503.310084c-31.614022 0-57.353243-25.739221-57.353243-57.375755l0-60.403718c0-31.614022 25.739221-57.353243 57.353243-57.353243l373.337917 0c31.614022 0 57.353243 25.739221 57.353243 57.353243l0 60.403718C771.69567 477.570863 745.95645 503.310084 714.342428 503.310084zM341.004511 362.887914c-12.496615 0-22.642696 10.146081-22.642696 22.642696l0 60.403718c0 12.496615 10.146081 22.665209 22.642696 22.665209l373.337917 0c12.496615 0 22.642696-10.168594 22.642696-22.665209l0-60.403718c0-12.496615-10.146081-22.642696-22.642696-22.642696L341.004511 362.887914z" p-id="17629"></path><path d="M659.407258 743.072773 395.939681 743.072773c-38.2123 0-69.284993-31.071669-69.284993-69.284993L326.654688 537.88453c0-38.213323 31.071669-69.284993 69.284993-69.284993l263.467577 0c38.213323 0 69.284993 31.071669 69.284993 69.284993l0 135.90325C728.691227 712.001103 697.619558 743.072773 659.407258 743.072773zM395.939681 503.310084c-19.072381 0-34.574447 15.502066-34.574447 34.574447l0 135.90325c0 19.072381 15.502066 34.574447 34.574447 34.574447l263.467577 0c19.072381 0 34.574447-15.502066 34.574447-34.574447L693.981704 537.88453c0-19.072381-15.502066-34.574447-34.574447-34.574447L395.939681 503.310084z" p-id="17630"></path></svg>