<?xml version="1.0" standalone="no"?><!DOCTYPE svg PUBLIC "-//W3C//DTD SVG 1.1//EN" "http://www.w3.org/Graphics/SVG/1.1/DTD/svg11.dtd"><svg t="1750511611363" class="icon" viewBox="0 0 1024 1024" version="1.1" xmlns="http://www.w3.org/2000/svg" p-id="18663" xmlns:xlink="http://www.w3.org/1999/xlink" width="200" height="200"><path d="M948.617637 538.285666l-55.79884-36.434817-92.63377-114.851794c-2.946099-3.554966-8.163937-9.136078-12.745279-9.136078L650.150942 377.862977 650.150942 268.600481c0-8.635681-3.255137-15.690354-11.782348-15.690354l-254.230192 0c-22.035876-62.48103-83.434248-113.034403-155.687852-113.034403-90.725304 0-163.487491 74.653257-163.487491 166.396751 0 58.171887 29.217439 109.387339 75.543533 139.142014l0 313.166489 0 75.370595c0 8.635681 4.872984 12.481266 13.400195 12.481266l124.032898 0c12.145621 31.235398 35.363416 37.690414 62.308091 37.690414 26.926256 0 50.126654-6.455015 62.272275-37.690414l303.993572 0c12.144598 31.235398 35.343973 37.690414 62.288648 37.690414 26.926256 0 50.145074-6.455015 62.289672-37.690414l105.416911 0c8.526187 0 22.527063-3.845585 22.527063-12.481266l0-75.370595L959.035918 551.266305C959.034894 546.057677 952.907337 541.176506 948.617637 538.285666zM780.184507 409.097352l88.561012 110.988814c0.945535 1.13587 5.600555 3.90903 6.836709 4.746094l52.562123 34.798551 0 177.469947L650.150942 737.100758 650.150942 438.223716l0-29.127388L780.184507 409.096329zM94.816994 306.290895c0-74.507948 59.944254-135.14191 133.633556-135.14191 73.670883 0 133.615137 60.634985 133.615137 135.14191 0 74.516134-59.944254 135.14191-133.615137 135.14191C154.761248 441.432805 94.816994 380.807029 94.816994 306.290895zM229.46874 472.669226c90.707908 0 163.997098-74.671677 163.997098-166.415171 0-7.499811-1.181919-22.107507-2.127454-22.107507l227.940432 0L619.278817 400.525116l0 37.699624 0 298.874995L171.397137 737.099734 171.397137 461.387275C186.85213 468.578048 208.614783 472.669226 229.46874 472.669226zM171.397137 815.19744l0-46.853098 110.179378 0c-7.963369 15.617699-12.69002 27.062356-12.69002 42.262546 0 1.100054 0.290619 4.590552 0.290619 4.590552L171.397137 815.19744zM340.247776 856.032474c-22.308075 0-40.47176-18.372439-40.47176-40.926108s18.163685-40.908712 40.47176-40.908712c22.309098 0 40.454364 18.355043 40.454364 40.908712S362.556874 856.032474 340.247776 856.032474zM411.264203 815.19744c0 0 0.310062-3.490497 0.310062-4.590552 0-15.20019-4.710278-26.644847-12.691043-42.262546l239.485373 0 71.780837 0c-7.963369 15.617699-12.69002 27.062356-12.69002 42.262546 0 1.100054 0.273223 4.590552 0.273223 4.590552L411.264203 815.19744zM768.802272 856.032474c-22.308075 0-40.453341-18.372439-40.453341-40.926108s18.145266-40.908712 40.453341-40.908712c22.309098 0 40.453341 18.355043 40.453341 40.908712S791.11137 856.032474 768.802272 856.032474zM839.818699 815.19744c0 0 0.327458-3.490497 0.327458-4.590552 0-15.20019-4.727675-26.644847-12.691043-42.262546l100.689237 0 0 46.853098L839.818699 815.19744zM228.450551 315.380924l-74.543763 0c-8.527211 0-15.436574-6.982018-15.436574-15.618723s6.909363-15.617699 15.436574-15.617699l63.834864 0 0-53.226249c0-8.635681 6.909363-15.626909 15.435551-15.626909 8.54563 0 15.454994 6.991228 15.454994 15.626909l0 75.370595C248.632195 314.926576 236.977761 315.380924 228.450551 315.380924z" fill="#666666" p-id="18664"></path></svg>