<?xml version="1.0" standalone="no"?><!DOCTYPE svg PUBLIC "-//W3C//DTD SVG 1.1//EN" "http://www.w3.org/Graphics/SVG/1.1/DTD/svg11.dtd"><svg t="1750522446420" class="icon" viewBox="0 0 1024 1024" version="1.1" xmlns="http://www.w3.org/2000/svg" p-id="29705" xmlns:xlink="http://www.w3.org/1999/xlink" width="200" height="200"><path d="M512 553.6c-69.4 0-125.8-56.4-125.8-125.8S442.6 302 512 302s125.8 56.4 125.8 125.8S581.4 553.6 512 553.6z m0-211.6c-47.3 0-85.8 38.5-85.8 85.8s38.5 85.8 85.8 85.8 85.8-38.5 85.8-85.8S559.3 342 512 342z" p-id="29706" fill="#bfbfbf"></path><path d="M512 766.3c-5.8 0-11.7-2-16.4-6.1L339.5 625.1c-37.1-26.7-67.9-62.1-89.2-102.5-22.2-42.1-33.9-89.7-33.9-137.6 0-78.9 30.7-153.2 86.6-209 55.8-55.8 130.1-86.6 209-86.6s153.2 30.7 209 86.6c55.8 55.8 86.6 130.1 86.6 209 0 47.9-11.7 95.4-33.9 137.5-21.3 40.4-52.1 75.8-89.2 102.5L528.4 760.2c-4.7 4.1-10.6 6.1-16.4 6.1z m0-626.9c-65.6 0-127.3 25.6-173.7 72-46.4 46.4-71.9 108.1-71.9 173.6 0 39.8 9.7 79.3 28.2 114.3 17.8 33.9 43.8 63.5 75 85.8 0.6 0.5 1.3 0.9 1.8 1.5L512 708.2l140.6-121.7c0.6-0.5 1.2-1 1.8-1.4 31.2-22.3 57.2-52 75-85.8 18.4-34.9 28.1-74.4 28.1-114.2 0-65.6-25.6-127.3-72-173.7-46.2-46.5-107.9-72-173.5-72z" p-id="29707" fill="#bfbfbf"></path><path d="M512 938.7c-87.7 0-170.5-13.6-233.2-38.3-32-12.6-57.5-27.6-75.8-44.6-15-14-32.9-36.9-32.9-66.9 0-47 42.8-88.2 120.4-115.9 13-4.7 27.3 2.1 32 15.1 4.7 13-2.1 27.3-15.1 32-53.8 19.3-87.2 45.6-87.2 68.9 0 21.4 29.5 46.3 76.9 65 57 22.5 133.3 34.8 214.9 34.8s157.9-12.4 214.9-34.8c47.5-18.7 76.9-43.6 76.9-65 0-23.2-33.4-49.5-87.1-68.8-13-4.7-19.8-19-15.1-32 4.7-13 19-19.8 32-15.1 77.6 27.8 120.3 68.9 120.3 115.8 0 16.5-5.7 41.6-32.9 66.9-18.3 17-43.7 32-75.8 44.6-62.7 24.7-145.5 38.3-233.2 38.3z" p-id="29708" fill="#bfbfbf"></path></svg>