<?xml version="1.0" standalone="no"?><!DOCTYPE svg PUBLIC "-//W3C//DTD SVG 1.1//EN" "http://www.w3.org/Graphics/SVG/1.1/DTD/svg11.dtd"><svg t="1750522402690" class="icon" viewBox="0 0 1024 1024" version="1.1" xmlns="http://www.w3.org/2000/svg" p-id="28566" xmlns:xlink="http://www.w3.org/1999/xlink" width="200" height="200"><path d="M336.607179 20.936633C349.838127 8.915764 367.384259 1.758038 385.250033 1.130167c84.8767 0.011416 169.741984 0.045663 254.618685-0.022831 18.767625 0.490881 37.238439 8.219398 50.78903 21.210613 8.162319 8.185151 16.941093 15.731014 25.742698 23.208383 57.604281 48.51728 124.010167 86.2466 194.502921 112.571505 11.678395 4.360847 22.317949 11.495741 30.662921 20.776812 12.077949 13.025463 18.69913 30.343278 20.217436 47.923656v296.88009c-0.810524 1.461226-1.803701 2.933868-1.700959 4.703322-3.710145 68.609142-23.139889 136.133779-55.184125 196.843166-30.286198 57.66136-71.668584 109.215251-120.026042 152.743813-54.01971 48.642854-116.715452 87.365351-183.69213 115.45971-28.99621 12.032285-58.700201 22.591929-89.123389 30.354693-67.992687-18.002765-133.234158-46.690747-192.470903-84.659799-68.369409-43.950948-128.713489-101.075764-173.646198-168.977124C98.941003 699.493601 69.54524 616.774493 64.339621 531.920624c-0.045663-3.847135-1.187246-7.545864-1.347068-11.370167 0.068495-95.892977 0-191.785953 0.045663-287.67893 0.079911-12.294849 2.477235-24.66961 8.013913-35.708718 8.721695-18.151171 24.920758-32.432375 43.871037-39.156298 81.885753-30.594426 158.33757-76.645886 221.684013-137.069878m44.65873 26.58747c-6.917993 1.461226-12.877057 5.628004-17.637459 10.708049-67.330569 63.118127-148.108986 111.247269-234.526822 143.245841-12.614493 4.73757-20.993712 18.002765-20.308763 31.416366-0.251148 89.431616-0.034247 178.863233-0.114158 268.294849-0.079911 7.55728 0.54796 15.091728 0.879019 22.637592 2.762631 52.752553 15.491282 104.922899 37.021538 153.154783 32.283969 72.63893 83.735117 135.905463 145.27786 185.82689 64.659264 52.352999 140.357637 90.721605 220.234203 113.621761 41.542207-11.769721 81.817258-28.03728 120.105953-47.980736 67.07942-35.0466 128.039955-82.46796 176.363166-140.871349 50.183991-60.321249 86.166689-133.040089 99.922765-210.507915 4.589164-24.658194 6.370033-49.738774 7.169141-74.77369 0.022832-91.737614-0.068495-183.509476 0.045664-275.235674-1.141583-10.057347-7.397458-19.372664-16.313222-24.17873-5.525262-2.739799-11.484326-4.475006-17.157994-6.87233-81.109476-31.895831-156.819264-78.255518-220.428272-137.994559-5.799242-6.609766-14.15563-11.06194-23.048561-11.233177-80.664259 0.057079-161.328517 0-241.992776 0.022831-5.171371 0.068495-10.411237-0.502297-15.491282 0.719198z" p-id="28567" fill="#bfbfbf"></path><path d="M486.42854 231.513043c58.323478-6.061806 118.656143 9.383813 166.579799 43.243167 34.738372 24.087402 63.0268 57.330301 81.417703 95.379264 18.48223 38.037547 26.758707 80.892575 24.098819 123.085485-2.454404 41.131237-15.479866 81.566109-37.51242 116.395808-22.945819 36.462163-55.549431 66.748361-93.60981 86.942965-39.030725 20.811059-83.723701 30.662921-127.880134 28.482498-42.067336-1.929275-83.56388-14.909075-119.226934-37.295519-36.051193-22.512018-66.109075-54.487759-86.406421-91.828941-27.055518-49.373467-36.153935-108.142163-25.811193-163.440446 8.128071-44.339086 28.813556-86.235184 58.939933-119.752062 40.571862-45.640491 98.587113-75.333066 159.410658-81.212219m3.287759 45.571996a200.621806 200.621806 0 0 0-70.104616 20.970881c-32.261137 16.541538-59.955942 41.896098-79.168784 72.650345-19.018774 30.057882-29.715407 65.298551-30.742832 100.847447-1.061672 32.71777 6.027559 65.652441 20.491416 95.013958 17.705953 36.08544 46.38252 66.691282 81.349208 86.531996 37.284103 21.610167 81.703099 30.343278 124.432553 25.080579 39.544437-4.691906 77.422163-21.678662 107.468629-47.752419 29.852397-25.76553 51.919197-60.435407 62.501672-98.427291 11.415831-40.777347 9.612129-85.184928-5.36544-124.809275-13.74466-36.873133-38.619755-69.476745-70.447091-92.616633-39.966823-29.430011-91.098328-42.980602-140.414715-37.489588z" p-id="28568" fill="#bfbfbf"></path><path d="M617.973155 395.935251c4.726154-4.943055 11.769721-7.534448 18.573556-6.575519 7.363211 0.82194 13.584838 5.9134 17.454805 12.02087 5.01155 8.162319 3.64165 19.555318-3.196432 26.279242-32.85476 32.934671-65.800847 65.789431-98.67844 98.701271-11.96379 11.655563-23.242631 24.030323-35.845708 35.000936-6.392865 5.662252-16.29039 6.689677-23.824838 2.762631-3.938462-1.952107-6.826667-5.354025-9.908941-8.379219-28.539576-28.562408-57.101984-57.090569-85.630145-85.641561-3.938462-3.847135-6.427113-9.14408-6.632597-14.657927-0.844771-14.315452 14.144214-27.386577 28.242764-23.699264 5.810658 1.152999 10.217168 5.354025 14.132799 9.520803 23.322542 23.333958 46.645084 46.656499 69.979041 69.979041 38.459933-38.425686 76.897035-76.874203 115.334136-115.311304z" p-id="28569" fill="#bfbfbf"></path></svg>