<?xml version="1.0" standalone="no"?><!DOCTYPE svg PUBLIC "-//W3C//DTD SVG 1.1//EN" "http://www.w3.org/Graphics/SVG/1.1/DTD/svg11.dtd"><svg t="1751100619455" class="icon" viewBox="0 0 1024 1024" version="1.1" xmlns="http://www.w3.org/2000/svg" p-id="16519" xmlns:xlink="http://www.w3.org/1999/xlink" width="200" height="200"><path d="M895.552 960H128.448a128.32 128.32 0 0 1-90.88-37.312A128.832 128.832 0 0 1 0 832V256a128 128 0 0 1 127.36-128h102.144L327.808 29.632C347.52 11.072 373.44 0.64 400.512 0h222.976c27.072 0.64 52.992 11.136 72.704 29.632L794.496 128h102.08a128 128 0 0 1 127.36 128v576.64A128 128 0 0 1 895.488 960zM896 256h-111.488a106.56 106.56 0 0 1-72.704-29.632L613.504 128H410.496L312.192 226.368A106.24 106.24 0 0 1 239.488 256H128v576h768V256zM512 256c141.44 0 256 114.56 256 256s-114.56 256-256 256-256-114.56-256-256 114.56-256 256-256z m0 384a128 128 0 1 0 0.064-255.936A128 128 0 0 0 512 640z" p-id="16520"></path></svg>