<?xml version="1.0" standalone="no"?><!DOCTYPE svg PUBLIC "-//W3C//DTD SVG 1.1//EN" "http://www.w3.org/Graphics/SVG/1.1/DTD/svg11.dtd"><svg t="1752820983683" class="icon" viewBox="0 0 1024 1024" version="1.1" xmlns="http://www.w3.org/2000/svg" p-id="5884" xmlns:xlink="http://www.w3.org/1999/xlink" width="200" height="200"><path d="M361.3938 1009.92H1024.0338V129.06H361.3938v880.86z" fill="#EDEDED" p-id="5885"></path><path d="M466.3738 511.61h428.25v-31.95H466.3738v31.95zM466.3738 430.09h428.25v-31.95H466.3738v31.95zM466.3738 596.99h428.25v-31.95H466.3738v31.95zM466.3738 682.36h428.25V650.4H466.3738v31.96zM466.3738 767.6h214.13v-31.95H466.3738v31.95z" fill="#CCCCCC" p-id="5886"></path><path d="M11.3638 687l181.93-181.3c15-14.9 38.54-14.9 52.48 0 15 14.9 15 38.39 0 52.28L63.7238 739.34c-15 14.9-38.54 14.9-52.49 0-15-13.89-15-37.39 0.13-52.29" fill="#CCCCCC" p-id="5887"></path><path d="M238.3038 195.4c-24.6 33.09-39.56 74.64-39.56 118.33 0 108.74 88.87 197.27 198 197.27s198-88.53 198-197.27-88.88-197.26-198-197.26a205.14 205.14 0 0 0-87.86 20.2c39.72-13.77 77.15-7.45 92.15 18.18 17.11 29.8-6.46 74.64-52.48 99.14-45 25.64-96.35 21.35-112.45-8.58-8.5-13.76-6.46-32 2.15-50" fill="#EBEBEB" p-id="5888"></path><path d="M396.7738 618.85c-168.1 0-305.16-136.52-305.16-304s137.05-304 305.16-304 305.16 136.53 305.16 304-137 304-305.16 304" fill="#CCCCCC" p-id="5889"></path><path d="M396.7738 545.22C524.1838 545.22 628.0338 441.79 628.0338 314.87S524.1838 84.51 396.7738 84.51 165.5238 187.94 165.5238 314.87s103.83 230.35 231.25 230.35" fill="#F7F7F7" p-id="5890"></path><path d="M380.5338 445.47a17.16 17.16 0 1 1 17.16 17.1 17.13 17.13 0 0 1-17.16-17.1z m0-230.79a17.16 17.16 0 0 1 34.32 0v171a17.16 17.16 0 0 1-34.32 0v-171z" fill="#C2C2C2" p-id="5891"></path></svg>